<?xml version="1.0" standalone="no"?>
<!DOCTYPE svg PUBLIC "-//W3C//DTD SVG 20010904//EN"
 "http://www.w3.org/TR/2001/REC-SVG-20010904/DTD/svg10.dtd">
<svg version="1.0" xmlns="http://www.w3.org/2000/svg"
 width="225.000000pt" height="225.000000pt" viewBox="0 0 225.000000 225.000000"
 preserveAspectRatio="xMidYMid meet">

<g transform="translate(0.000000,225.000000) scale(0.100000,-0.100000)"
fill="#000000" stroke="none">
<path d="M825 1809 c-266 -7 -414 -19 -488 -41 -47 -14 -112 -70 -136 -117
-66 -129 -83 -694 -30 -961 15 -75 41 -121 89 -162 72 -62 171 -77 580 -87
488 -11 956 7 1073 41 47 14 112 70 136 117 38 75 61 271 61 526 0 255 -23
451 -61 526 -24 47 -89 103 -136 117 -67 20 -203 32 -403 37 -107 3 -244 7
-305 8 -60 2 -231 0 -380 -4z m360 -534 c132 -76 244 -141 248 -145 6 -5 -250
-159 -495 -297 -5 -2 -8 129 -8 292 0 163 3 294 8 292 4 -2 115 -66 247 -142z"/>
</g>
</svg>
